<svg width="52" height="29" viewBox="0 0 52 29" fill="none" xmlns="http://www.w3.org/2000/svg">
<path d="M9.9424 1.58823H1.35547V23.0039H9.9424V1.58823Z" stroke="#FF6600" stroke-width="2.0654" stroke-miterlimit="10" stroke-linecap="round" stroke-linejoin="round"/>
<path d="M9.9425 3.65738H16.3569" stroke="#FF6600" stroke-width="2.0654" stroke-miterlimit="10" stroke-linecap="round" stroke-linejoin="round"/>
<path d="M9.9425 18.6587H13.1497L18.5294 27.1422H23.8058" stroke="#FF6600" stroke-width="2.0654" stroke-miterlimit="10" stroke-linecap="round" stroke-linejoin="round"/>
<path d="M5.59732 16.4861H6.63189C6.63189 15.8654 6.1146 15.4515 5.59732 15.4515C4.97657 15.4515 4.56274 15.9688 4.56274 16.4861C4.56274 17.0034 5.08003 17.5207 5.59732 17.5207C6.21806 17.5207 6.63189 17.0034 6.63189 16.4861H5.59732Z" fill="#FF6600"/>
<path d="M20.5986 20.7278L23.8058 27.1422H29.1856" stroke="#FF6600" stroke-width="2.0654" stroke-miterlimit="10" stroke-linecap="round" stroke-linejoin="round"/>
<path d="M25.9784 19.6932L29.1855 27.1422L33.4273 25.073" stroke="#FF6600" stroke-width="2.0654" stroke-miterlimit="10" stroke-linecap="round" stroke-linejoin="round"/>
<path d="M30.2201 17.5207L33.4273 24.9696L37.6691 21.7624L31.3582 10.0718L27.1164 7.89915L23.7023 11.3132C22.047 12.9686 19.3571 12.9686 17.7018 11.3132L16.4603 10.0718L23.9093 1.4848H34.5653L42.0143 5.72655" stroke="#FF6600" stroke-width="2.0654" stroke-miterlimit="10" stroke-linecap="round" stroke-linejoin="round"/>
<path d="M36.6345 18.6587H42.0143" stroke="#FF6600" stroke-width="2.0654" stroke-miterlimit="10" stroke-linecap="round" stroke-linejoin="round"/>
<path d="M50.6011 1.58823H42.0142V23.0039H50.6011V1.58823Z" stroke="#FF6600" stroke-width="2.0654" stroke-miterlimit="10" stroke-linecap="round" stroke-linejoin="round"/>
<path d="M46.2559 17.6241H47.2905C47.2905 17.0034 46.7732 16.5895 46.2559 16.5895C45.6351 16.5895 45.2213 17.1068 45.2213 17.6241C45.2213 18.2449 45.7386 18.6587 46.2559 18.6587C46.8766 18.6587 47.2905 18.1414 47.2905 17.6241H46.2559Z" fill="#FF6600"/>
</svg>
